<?xml version="1.0" encoding="UTF-8" standalone="no"?>
<!DOCTYPE svg PUBLIC "-//W3C//DTD SVG 1.1//EN"
 "http://www.w3.org/Graphics/SVG/1.1/DTD/svg11.dtd">
<!-- Generated by graphviz version 2.36.0 (20140111.2315)
 -->
<!-- Title: G Pages: 1 -->
<svg width="264pt" height="399pt"
 viewBox="0.00 0.00 264.00 399.00" xmlns="http://www.w3.org/2000/svg" xmlns:xlink="http://www.w3.org/1999/xlink">
<g id="graph0" class="graph" transform="scale(1 1) rotate(0) translate(4 395)">
<title>G</title>
<polygon fill="white" stroke="none" points="-4,4 -4,-395 260,-395 260,4 -4,4"/>
<text text-anchor="middle" x="128" y="-375.8" font-family="Times,serif" font-size="14.00">my_bad_linear_net</text>
<!-- n1 -->
<g id="node1" class="node"><title>n1</title>
<g id="a_node1"><a xlink:title="[./vision.lua]:14">
<ellipse fill="red" stroke="black" cx="128" cy="-128" rx="128.54" ry="37.4533"/>
<text text-anchor="middle" x="128" y="-139.3" font-family="Times,serif" font-size="14.00">linear_module (1)</text>
<text text-anchor="start" x="45" y="-124.3" font-family="Times,serif" font-size="14.00">input = {Tensor[11]}</text>
<text text-anchor="middle" x="128" y="-109.3" font-family="Times,serif" font-size="14.00">module = nn.Linear(10 &#45;&gt; 10)</text>
</a>
</g>
</g>
<!-- n2 -->
<g id="node2" class="node"><title>n2</title>
<g id="a_node2"><a xlink:title="[[C]]:&#45;1">
<ellipse fill="none" stroke="black" cx="128" cy="-27" rx="51.99" ry="26.7407"/>
<text text-anchor="middle" x="128" y="-30.8" font-family="Times,serif" font-size="14.00">Node2</text>
<text text-anchor="middle" x="128" y="-15.8" font-family="Times,serif" font-size="14.00">input = {}</text>
</a>
</g>
</g>
<!-- n1&#45;&gt;n2 -->
<g id="edge1" class="edge"><title>n1&#45;&gt;n2</title>
<path fill="none" stroke="black" d="M128,-90.4173C128,-81.8023 128,-72.6261 128,-64.0354"/>
<polygon fill="black" stroke="black" points="131.5,-63.9241 128,-53.9242 124.5,-63.9242 131.5,-63.9241"/>
</g>
<!-- n3 -->
<g id="node3" class="node"><title>n3</title>
<g id="a_node3"><a xlink:title="[./vision.lua]:13">
<ellipse fill="none" stroke="black" cx="128" cy="-240" rx="94.1301" ry="37.4533"/>
<text text-anchor="middle" x="128" y="-251.3" font-family="Times,serif" font-size="14.00">input_x (3)</text>
<text text-anchor="start" x="69" y="-236.3" font-family="Times,serif" font-size="14.00">input = {Tensor[11]}</text>
<text text-anchor="middle" x="128" y="-221.3" font-family="Times,serif" font-size="14.00">module = nn.Identity</text>
</a>
</g>
</g>
<!-- n3&#45;&gt;n1 -->
<g id="edge2" class="edge"><title>n3&#45;&gt;n1</title>
<path fill="none" stroke="black" d="M128,-202.372C128,-193.927 128,-184.829 128,-176.011"/>
<polygon fill="black" stroke="black" points="131.5,-175.843 128,-165.844 124.5,-175.844 131.5,-175.843"/>
</g>
<!-- n4 -->
<g id="node4" class="node"><title>n4</title>
<g id="a_node4"><a xlink:title="[[C]]:&#45;1">
<ellipse fill="none" stroke="black" cx="128" cy="-341" rx="94.1301" ry="26.7407"/>
<text text-anchor="middle" x="128" y="-344.8" font-family="Times,serif" font-size="14.00">Node4</text>
<text text-anchor="middle" x="128" y="-329.8" font-family="Times,serif" font-size="14.00">input = {Tensor[11]}</text>
</a>
</g>
</g>
<!-- n4&#45;&gt;n3 -->
<g id="edge3" class="edge"><title>n4&#45;&gt;n3</title>
<path fill="none" stroke="black" d="M128,-313.989C128,-305.914 128,-296.753 128,-287.716"/>
<polygon fill="black" stroke="black" points="131.5,-287.631 128,-277.631 124.5,-287.631 131.5,-287.631"/>
</g>
</g>
</svg>
