<?xml version="1.0" encoding="UTF-8" standalone="no"?>
<!DOCTYPE svg PUBLIC "-//W3C//DTD SVG 1.1//EN"
 "http://www.w3.org/Graphics/SVG/1.1/DTD/svg11.dtd">
<!-- Generated by graphviz version 2.36.0 (20140111.2315)
 -->
<!-- Title: G Pages: 1 -->
<svg width="887pt" height="1427pt"
 viewBox="0.00 0.00 887.00 1427.00" xmlns="http://www.w3.org/2000/svg" xmlns:xlink="http://www.w3.org/1999/xlink">
<g id="graph0" class="graph" transform="scale(1 1) rotate(0) translate(4 1423)">
<title>G</title>
<polygon fill="white" stroke="none" points="-4,4 -4,-1423 883,-1423 883,4 -4,4"/>
<text text-anchor="middle" x="439.5" y="-1403.8" font-family="Times,serif" font-size="14.00">MLP</text>
<!-- n1 -->
<g id="node1" class="node"><title>n1</title>
<g id="a_node1"><a xlink:title="[./vision.lua]:22">
<ellipse fill="none" stroke="black" cx="461" cy="-128" rx="193.06" ry="37.4533"/>
<text text-anchor="middle" x="461" y="-139.3" font-family="Times,serif" font-size="14.00">Node1</text>
<text text-anchor="start" x="332.5" y="-124.3" font-family="Times,serif" font-size="14.00">input = {Tensor[10x472x632]}</text>
<text text-anchor="middle" x="461" y="-109.3" font-family="Times,serif" font-size="14.00">module = nn.SpatialConvolution(10 &#45;&gt; 3, 1x1)</text>
</a>
</g>
</g>
<!-- n2 -->
<g id="node2" class="node"><title>n2</title>
<g id="a_node2"><a xlink:title="[[C]]:&#45;1">
<ellipse fill="none" stroke="black" cx="461" cy="-27" rx="127.48" ry="26.7407"/>
<text text-anchor="middle" x="461" y="-30.8" font-family="Times,serif" font-size="14.00">Node2</text>
<text text-anchor="middle" x="461" y="-15.8" font-family="Times,serif" font-size="14.00">input = {Tensor[3x472x632]}</text>
</a>
</g>
</g>
<!-- n1&#45;&gt;n2 -->
<g id="edge1" class="edge"><title>n1&#45;&gt;n2</title>
<path fill="none" stroke="black" d="M461,-90.4173C461,-81.8023 461,-72.6261 461,-64.0354"/>
<polygon fill="black" stroke="black" points="464.5,-63.9241 461,-53.9242 457.5,-63.9242 464.5,-63.9241"/>
</g>
<!-- n3 -->
<g id="node3" class="node"><title>n3</title>
<g id="a_node3"><a xlink:title="[./vision.lua]:21">
<ellipse fill="none" stroke="black" cx="461" cy="-240" rx="171.241" ry="37.4533"/>
<text text-anchor="middle" x="461" y="-251.3" font-family="Times,serif" font-size="14.00">Node3</text>
<text text-anchor="start" x="347.5" y="-236.3" font-family="Times,serif" font-size="14.00">input = {Tensor[10x474x634]}</text>
<text text-anchor="middle" x="461" y="-221.3" font-family="Times,serif" font-size="14.00">module = nn.SpatialMaxPooling(3,3,1,1)</text>
</a>
</g>
</g>
<!-- n3&#45;&gt;n1 -->
<g id="edge2" class="edge"><title>n3&#45;&gt;n1</title>
<path fill="none" stroke="black" d="M461,-202.372C461,-193.927 461,-184.829 461,-176.011"/>
<polygon fill="black" stroke="black" points="464.5,-175.843 461,-165.844 457.5,-175.844 464.5,-175.843"/>
</g>
<!-- n4 -->
<g id="node4" class="node"><title>n4</title>
<g id="a_node4"><a xlink:title="[./vision.lua]:21">
<ellipse fill="none" stroke="black" cx="461" cy="-352" rx="132.404" ry="37.4533"/>
<text text-anchor="middle" x="461" y="-363.3" font-family="Times,serif" font-size="14.00">Node4</text>
<text text-anchor="start" x="375" y="-348.3" font-family="Times,serif" font-size="14.00">input = {Tensor[10x474x634]}</text>
<text text-anchor="middle" x="461" y="-333.3" font-family="Times,serif" font-size="14.00">module = nn.ReLU</text>
</a>
</g>
</g>
<!-- n4&#45;&gt;n3 -->
<g id="edge3" class="edge"><title>n4&#45;&gt;n3</title>
<path fill="none" stroke="black" d="M461,-314.372C461,-305.927 461,-296.829 461,-288.011"/>
<polygon fill="black" stroke="black" points="464.5,-287.843 461,-277.844 457.5,-287.844 464.5,-287.843"/>
</g>
<!-- n5 -->
<g id="node5" class="node"><title>n5</title>
<g id="a_node5"><a xlink:title="[./vision.lua]:21">
<ellipse fill="none" stroke="black" cx="461" cy="-464" rx="197.485" ry="37.4533"/>
<text text-anchor="middle" x="461" y="-475.3" font-family="Times,serif" font-size="14.00">Node5</text>
<text text-anchor="start" x="329" y="-460.3" font-family="Times,serif" font-size="14.00">input = {Tensor[10x476x636]}</text>
<text text-anchor="middle" x="461" y="-445.3" font-family="Times,serif" font-size="14.00">module = nn.SpatialConvolution(10 &#45;&gt; 10, 3x3)</text>
</a>
</g>
</g>
<!-- n5&#45;&gt;n4 -->
<g id="edge4" class="edge"><title>n5&#45;&gt;n4</title>
<path fill="none" stroke="black" d="M461,-426.372C461,-417.927 461,-408.829 461,-400.011"/>
<polygon fill="black" stroke="black" points="464.5,-399.843 461,-389.844 457.5,-399.844 464.5,-399.843"/>
</g>
<!-- n6 -->
<g id="node6" class="node"><title>n6</title>
<g id="a_node6"><a xlink:title="[./vision.lua]:20">
<ellipse fill="none" stroke="black" cx="461" cy="-576" rx="171.241" ry="37.4533"/>
<text text-anchor="middle" x="461" y="-587.3" font-family="Times,serif" font-size="14.00">Node6</text>
<text text-anchor="start" x="347.5" y="-572.3" font-family="Times,serif" font-size="14.00">input = {Tensor[10x478x638]}</text>
<text text-anchor="middle" x="461" y="-557.3" font-family="Times,serif" font-size="14.00">module = nn.SpatialMaxPooling(3,3,1,1)</text>
</a>
</g>
</g>
<!-- n6&#45;&gt;n5 -->
<g id="edge5" class="edge"><title>n6&#45;&gt;n5</title>
<path fill="none" stroke="black" d="M461,-538.372C461,-529.927 461,-520.829 461,-512.011"/>
<polygon fill="black" stroke="black" points="464.5,-511.843 461,-501.844 457.5,-511.844 464.5,-511.843"/>
</g>
<!-- n7 -->
<g id="node7" class="node"><title>n7</title>
<g id="a_node7"><a xlink:title="[./vision.lua]:20">
<ellipse fill="none" stroke="black" cx="461" cy="-688" rx="132.404" ry="37.4533"/>
<text text-anchor="middle" x="461" y="-699.3" font-family="Times,serif" font-size="14.00">Node7</text>
<text text-anchor="start" x="375" y="-684.3" font-family="Times,serif" font-size="14.00">input = {Tensor[10x478x638]}</text>
<text text-anchor="middle" x="461" y="-669.3" font-family="Times,serif" font-size="14.00">module = nn.ReLU</text>
</a>
</g>
</g>
<!-- n7&#45;&gt;n6 -->
<g id="edge6" class="edge"><title>n7&#45;&gt;n6</title>
<path fill="none" stroke="black" d="M461,-650.372C461,-641.927 461,-632.829 461,-624.011"/>
<polygon fill="black" stroke="black" points="464.5,-623.843 461,-613.844 457.5,-623.844 464.5,-623.843"/>
</g>
<!-- n8 -->
<g id="node8" class="node"><title>n8</title>
<g id="a_node8"><a xlink:title="[./vision.lua]:20">
<ellipse fill="none" stroke="black" cx="461" cy="-800" rx="193.06" ry="37.4533"/>
<text text-anchor="middle" x="461" y="-811.3" font-family="Times,serif" font-size="14.00">Node8</text>
<text text-anchor="start" x="332.5" y="-796.3" font-family="Times,serif" font-size="14.00">input = {Tensor[6x480x640]}</text>
<text text-anchor="middle" x="461" y="-781.3" font-family="Times,serif" font-size="14.00">module = nn.SpatialConvolution(6 &#45;&gt; 10, 3x3)</text>
</a>
</g>
</g>
<!-- n8&#45;&gt;n7 -->
<g id="edge7" class="edge"><title>n8&#45;&gt;n7</title>
<path fill="none" stroke="black" d="M461,-762.372C461,-753.927 461,-744.829 461,-736.011"/>
<polygon fill="black" stroke="black" points="464.5,-735.843 461,-725.844 457.5,-735.844 464.5,-735.843"/>
</g>
<!-- n9 -->
<g id="node9" class="node"><title>n9</title>
<g id="a_node9"><a xlink:title="[./vision.lua]:19">
<ellipse fill="none" stroke="black" cx="461" cy="-922" rx="206.213" ry="48.1667"/>
<text text-anchor="middle" x="461" y="-940.8" font-family="Times,serif" font-size="14.00">Node9</text>
<text text-anchor="start" x="323" y="-925.8" font-family="Times,serif" font-size="14.00">input = {Tensor[3x480x640],Tensor[3x480x640]}</text>
<text text-anchor="start" x="323" y="-910.8" font-family="Times,serif" font-size="14.00">module = nn.JoinTable</text>
<text text-anchor="middle" x="461" y="-895.8" font-family="Times,serif" font-size="14.00">mapindex = {Node10,Node11}</text>
</a>
</g>
</g>
<!-- n9&#45;&gt;n8 -->
<g id="edge8" class="edge"><title>n9&#45;&gt;n8</title>
<path fill="none" stroke="black" d="M461,-873.573C461,-865.096 461,-856.269 461,-847.81"/>
<polygon fill="black" stroke="black" points="464.5,-847.722 461,-837.722 457.5,-847.722 464.5,-847.722"/>
</g>
<!-- n10 -->
<g id="node10" class="node"><title>n10</title>
<g id="a_node10"><a xlink:title="[./vision.lua]:17">
<ellipse fill="none" stroke="black" cx="302" cy="-1044" rx="127.48" ry="37.4533"/>
<text text-anchor="middle" x="302" y="-1055.3" font-family="Times,serif" font-size="14.00">Node10</text>
<text text-anchor="start" x="219.5" y="-1040.3" font-family="Times,serif" font-size="14.00">input = {Tensor[3x480x640]}</text>
<text text-anchor="middle" x="302" y="-1025.3" font-family="Times,serif" font-size="14.00">module = nn.Identity</text>
</a>
</g>
</g>
<!-- n10&#45;&gt;n9 -->
<g id="edge9" class="edge"><title>n10&#45;&gt;n9</title>
<path fill="none" stroke="black" d="M347.138,-1008.93C361.445,-998.136 377.591,-985.95 393.131,-974.222"/>
<polygon fill="black" stroke="black" points="395.316,-976.958 401.19,-968.14 391.099,-971.37 395.316,-976.958"/>
</g>
<!-- n11 -->
<g id="node11" class="node"><title>n11</title>
<g id="a_node11"><a xlink:title="[./vision.lua]:18">
<ellipse fill="none" stroke="black" cx="620" cy="-1044" rx="127.48" ry="37.4533"/>
<text text-anchor="middle" x="620" y="-1055.3" font-family="Times,serif" font-size="14.00">Node11</text>
<text text-anchor="start" x="537.5" y="-1040.3" font-family="Times,serif" font-size="14.00">input = {Tensor[3x480x640]}</text>
<text text-anchor="middle" x="620" y="-1025.3" font-family="Times,serif" font-size="14.00">module = nn.Identity</text>
</a>
</g>
</g>
<!-- n11&#45;&gt;n9 -->
<g id="edge10" class="edge"><title>n11&#45;&gt;n9</title>
<path fill="none" stroke="black" d="M574.862,-1008.93C560.555,-998.136 544.409,-985.95 528.869,-974.222"/>
<polygon fill="black" stroke="black" points="530.901,-971.37 520.81,-968.14 526.684,-976.958 530.901,-971.37"/>
</g>
<!-- n12 -->
<g id="node12" class="node"><title>n12</title>
<g id="a_node12"><a xlink:title="[[C]]:&#45;1&#45;1">
<ellipse fill="none" stroke="black" cx="215" cy="-1156" rx="215.501" ry="37.4533"/>
<text text-anchor="middle" x="215" y="-1167.3" font-family="Times,serif" font-size="14.00">Node12</text>
<text text-anchor="start" x="70.5" y="-1152.3" font-family="Times,serif" font-size="14.00">input = {{Tensor[3x480x640],Tensor[3x480x640]}}</text>
<text text-anchor="middle" x="215" y="-1137.3" font-family="Times,serif" font-size="14.00">selectindex = 1</text>
</a>
</g>
</g>
<!-- n12&#45;&gt;n10 -->
<g id="edge11" class="edge"><title>n12&#45;&gt;n10</title>
<path fill="none" stroke="black" d="M243.728,-1118.68C251.23,-1109.19 259.396,-1098.87 267.177,-1089.03"/>
<polygon fill="black" stroke="black" points="270.14,-1090.92 273.599,-1080.91 264.65,-1086.58 270.14,-1090.92"/>
</g>
<!-- n13 -->
<g id="node13" class="node"><title>n13</title>
<g id="a_node13"><a xlink:title="[[C]]:&#45;1&#45;2">
<ellipse fill="none" stroke="black" cx="664" cy="-1156" rx="215.501" ry="37.4533"/>
<text text-anchor="middle" x="664" y="-1167.3" font-family="Times,serif" font-size="14.00">Node13</text>
<text text-anchor="start" x="519.5" y="-1152.3" font-family="Times,serif" font-size="14.00">input = {{Tensor[3x480x640],Tensor[3x480x640]}}</text>
<text text-anchor="middle" x="664" y="-1137.3" font-family="Times,serif" font-size="14.00">selectindex = 2</text>
</a>
</g>
</g>
<!-- n13&#45;&gt;n11 -->
<g id="edge12" class="edge"><title>n13&#45;&gt;n11</title>
<path fill="none" stroke="black" d="M649.349,-1118.37C645.823,-1109.56 642.014,-1100.03 638.344,-1090.86"/>
<polygon fill="black" stroke="black" points="641.551,-1089.45 634.587,-1081.47 635.052,-1092.05 641.551,-1089.45"/>
</g>
<!-- n14 -->
<g id="node14" class="node"><title>n14</title>
<g id="a_node14"><a xlink:title="[[C]]:&#45;1&#45;mnode">
<ellipse fill="none" stroke="black" cx="439" cy="-1268" rx="215.501" ry="37.4533"/>
<text text-anchor="middle" x="439" y="-1279.3" font-family="Times,serif" font-size="14.00">Node14</text>
<text text-anchor="start" x="294.5" y="-1264.3" font-family="Times,serif" font-size="14.00">input = {{Tensor[3x480x640],Tensor[3x480x640]}}</text>
<text text-anchor="middle" x="439" y="-1249.3" font-family="Times,serif" font-size="14.00">nSplitOutputs = 2</text>
</a>
</g>
</g>
<!-- n14&#45;&gt;n12 -->
<g id="edge13" class="edge"><title>n14&#45;&gt;n12</title>
<path fill="none" stroke="black" d="M368.74,-1232.5C345.189,-1220.93 318.766,-1207.96 294.556,-1196.07"/>
<polygon fill="black" stroke="black" points="295.915,-1192.84 285.396,-1191.57 292.829,-1199.12 295.915,-1192.84"/>
</g>
<!-- n14&#45;&gt;n13 -->
<g id="edge14" class="edge"><title>n14&#45;&gt;n13</title>
<path fill="none" stroke="black" d="M509.574,-1232.5C533.23,-1220.93 559.771,-1207.96 584.089,-1196.07"/>
<polygon fill="black" stroke="black" points="585.843,-1199.11 593.29,-1191.57 582.769,-1192.82 585.843,-1199.11"/>
</g>
<!-- n15 -->
<g id="node15" class="node"><title>n15</title>
<g id="a_node15"><a xlink:title="[[C]]:&#45;1">
<ellipse fill="none" stroke="black" cx="439" cy="-1369" rx="206.213" ry="26.7407"/>
<text text-anchor="middle" x="439" y="-1372.8" font-family="Times,serif" font-size="14.00">Node15</text>
<text text-anchor="middle" x="439" y="-1357.8" font-family="Times,serif" font-size="14.00">input = {Tensor[3x480x640],Tensor[3x480x640]}</text>
</a>
</g>
</g>
<!-- n15&#45;&gt;n14 -->
<g id="edge15" class="edge"><title>n15&#45;&gt;n14</title>
<path fill="none" stroke="black" d="M439,-1341.99C439,-1333.91 439,-1324.75 439,-1315.72"/>
<polygon fill="black" stroke="black" points="442.5,-1315.63 439,-1305.63 435.5,-1315.63 442.5,-1315.63"/>
</g>
</g>
</svg>
