<?xml version="1.0" encoding="UTF-8" standalone="no"?>
<!DOCTYPE svg PUBLIC "-//W3C//DTD SVG 1.1//EN"
 "http://www.w3.org/Graphics/SVG/1.1/DTD/svg11.dtd">
<!-- Generated by graphviz version 2.36.0 (20140111.2315)
 -->
<!-- Title: G Pages: 1 -->
<svg width="887pt" height="1957pt"
 viewBox="0.00 0.00 887.00 1957.00" xmlns="http://www.w3.org/2000/svg" xmlns:xlink="http://www.w3.org/1999/xlink">
<g id="graph0" class="graph" transform="scale(1 1) rotate(0) translate(4 1953)">
<title>G</title>
<polygon fill="white" stroke="none" points="-4,4 -4,-1953 883,-1953 883,4 -4,4"/>
<text text-anchor="middle" x="439.5" y="-1933.8" font-family="Times,serif" font-size="14.00">nngraph_2in_1out</text>
<!-- n1 -->
<g id="node1" class="node"><title>n1</title>
<g id="a_node1"><a xlink:title="[./vision.lua]:24">
<ellipse fill="red" stroke="black" cx="461" cy="-160" rx="188.136" ry="48.1667"/>
<text text-anchor="middle" x="461" y="-178.8" font-family="Times,serif" font-size="14.00">Node1</text>
<text text-anchor="start" x="336" y="-163.8" font-family="Times,serif" font-size="14.00">input = {Tensor[3x352x632]}</text>
<text text-anchor="start" x="336" y="-148.8" font-family="Times,serif" font-size="14.00">module = nn.SpatialConvolution(3 &#45;&gt; 1, 3x3)</text>
<text text-anchor="middle" x="461" y="-133.8" font-family="Times,serif" font-size="14.00">gradOutput = {Tensor[1x350x630]}</text>
</a>
</g>
</g>
<!-- n2 -->
<g id="node2" class="node"><title>n2</title>
<g id="a_node2"><a xlink:title="[[C]]:&#45;1">
<ellipse fill="none" stroke="black" cx="461" cy="-38" rx="152.042" ry="37.4533"/>
<text text-anchor="middle" x="461" y="-49.3" font-family="Times,serif" font-size="14.00">Node2</text>
<text text-anchor="start" x="361.5" y="-34.3" font-family="Times,serif" font-size="14.00">input = {Tensor[1x350x630]}</text>
<text text-anchor="middle" x="461" y="-19.3" font-family="Times,serif" font-size="14.00">gradOutput = {Tensor[1x350x630]}</text>
</a>
</g>
</g>
<!-- n1&#45;&gt;n2 -->
<g id="edge1" class="edge"><title>n1&#45;&gt;n2</title>
<path fill="none" stroke="black" d="M461,-111.573C461,-103.096 461,-94.269 461,-85.8099"/>
<polygon fill="black" stroke="black" points="464.5,-85.7224 461,-75.7224 457.5,-85.7224 464.5,-85.7224"/>
</g>
<!-- n3 -->
<g id="node3" class="node"><title>n3</title>
<g id="a_node3"><a xlink:title="[./vision.lua]:23">
<ellipse fill="none" stroke="black" cx="461" cy="-292" rx="171.241" ry="48.1667"/>
<text text-anchor="middle" x="461" y="-310.8" font-family="Times,serif" font-size="14.00">Node3</text>
<text text-anchor="start" x="347.5" y="-295.8" font-family="Times,serif" font-size="14.00">input = {Tensor[3x354x634]}</text>
<text text-anchor="start" x="347.5" y="-280.8" font-family="Times,serif" font-size="14.00">module = nn.SpatialMaxPooling(3,3,1,1)</text>
<text text-anchor="middle" x="461" y="-265.8" font-family="Times,serif" font-size="14.00">gradOutput = {}</text>
</a>
</g>
</g>
<!-- n3&#45;&gt;n1 -->
<g id="edge2" class="edge"><title>n3&#45;&gt;n1</title>
<path fill="none" stroke="black" d="M461,-243.699C461,-235.544 461,-226.987 461,-218.597"/>
<polygon fill="black" stroke="black" points="464.5,-218.483 461,-208.483 457.5,-218.483 464.5,-218.483"/>
</g>
<!-- n4 -->
<g id="node4" class="node"><title>n4</title>
<g id="a_node4"><a xlink:title="[./vision.lua]:23">
<ellipse fill="none" stroke="black" cx="461" cy="-424" rx="127.48" ry="48.1667"/>
<text text-anchor="middle" x="461" y="-442.8" font-family="Times,serif" font-size="14.00">Node4</text>
<text text-anchor="start" x="378.5" y="-427.8" font-family="Times,serif" font-size="14.00">input = {Tensor[3x354x634]}</text>
<text text-anchor="start" x="378.5" y="-412.8" font-family="Times,serif" font-size="14.00">module = nn.ReLU</text>
<text text-anchor="middle" x="461" y="-397.8" font-family="Times,serif" font-size="14.00">gradOutput = {}</text>
</a>
</g>
</g>
<!-- n4&#45;&gt;n3 -->
<g id="edge3" class="edge"><title>n4&#45;&gt;n3</title>
<path fill="none" stroke="black" d="M461,-375.699C461,-367.544 461,-358.987 461,-350.597"/>
<polygon fill="black" stroke="black" points="464.5,-350.483 461,-340.483 457.5,-350.483 464.5,-350.483"/>
</g>
<!-- n5 -->
<g id="node5" class="node"><title>n5</title>
<g id="a_node5"><a xlink:title="[./vision.lua]:23">
<ellipse fill="none" stroke="black" cx="461" cy="-556" rx="138.389" ry="48.1667"/>
<text text-anchor="middle" x="461" y="-574.8" font-family="Times,serif" font-size="14.00">Node5</text>
<text text-anchor="start" x="371" y="-559.8" font-family="Times,serif" font-size="14.00">input = {Tensor[3x354x634]}</text>
<text text-anchor="start" x="371" y="-544.8" font-family="Times,serif" font-size="14.00">module = nn.Dropout(0.500000)</text>
<text text-anchor="middle" x="461" y="-529.8" font-family="Times,serif" font-size="14.00">gradOutput = {}</text>
</a>
</g>
</g>
<!-- n5&#45;&gt;n4 -->
<g id="edge4" class="edge"><title>n5&#45;&gt;n4</title>
<path fill="none" stroke="black" d="M461,-507.699C461,-499.544 461,-490.987 461,-482.597"/>
<polygon fill="black" stroke="black" points="464.5,-482.483 461,-472.483 457.5,-482.483 464.5,-482.483"/>
</g>
<!-- n6 -->
<g id="node6" class="node"><title>n6</title>
<g id="a_node6"><a xlink:title="[./vision.lua]:23">
<ellipse fill="none" stroke="black" cx="461" cy="-688" rx="188.136" ry="48.1667"/>
<text text-anchor="middle" x="461" y="-706.8" font-family="Times,serif" font-size="14.00">Node6</text>
<text text-anchor="start" x="336" y="-691.8" font-family="Times,serif" font-size="14.00">input = {Tensor[4x356x636]}</text>
<text text-anchor="start" x="336" y="-676.8" font-family="Times,serif" font-size="14.00">module = nn.SpatialConvolution(4 &#45;&gt; 3, 3x3)</text>
<text text-anchor="middle" x="461" y="-661.8" font-family="Times,serif" font-size="14.00">gradOutput = {}</text>
</a>
</g>
</g>
<!-- n6&#45;&gt;n5 -->
<g id="edge5" class="edge"><title>n6&#45;&gt;n5</title>
<path fill="none" stroke="black" d="M461,-639.699C461,-631.544 461,-622.987 461,-614.597"/>
<polygon fill="black" stroke="black" points="464.5,-614.483 461,-604.483 457.5,-614.483 464.5,-614.483"/>
</g>
<!-- n7 -->
<g id="node7" class="node"><title>n7</title>
<g id="a_node7"><a xlink:title="[./vision.lua]:22">
<ellipse fill="none" stroke="black" cx="461" cy="-820" rx="171.241" ry="48.1667"/>
<text text-anchor="middle" x="461" y="-838.8" font-family="Times,serif" font-size="14.00">Node7</text>
<text text-anchor="start" x="347.5" y="-823.8" font-family="Times,serif" font-size="14.00">input = {Tensor[4x358x638]}</text>
<text text-anchor="start" x="347.5" y="-808.8" font-family="Times,serif" font-size="14.00">module = nn.SpatialMaxPooling(3,3,1,1)</text>
<text text-anchor="middle" x="461" y="-793.8" font-family="Times,serif" font-size="14.00">gradOutput = {}</text>
</a>
</g>
</g>
<!-- n7&#45;&gt;n6 -->
<g id="edge6" class="edge"><title>n7&#45;&gt;n6</title>
<path fill="none" stroke="black" d="M461,-771.699C461,-763.544 461,-754.987 461,-746.597"/>
<polygon fill="black" stroke="black" points="464.5,-746.483 461,-736.483 457.5,-746.483 464.5,-746.483"/>
</g>
<!-- n8 -->
<g id="node8" class="node"><title>n8</title>
<g id="a_node8"><a xlink:title="[./vision.lua]:22">
<ellipse fill="none" stroke="black" cx="461" cy="-952" rx="127.48" ry="48.1667"/>
<text text-anchor="middle" x="461" y="-970.8" font-family="Times,serif" font-size="14.00">Node8</text>
<text text-anchor="start" x="378.5" y="-955.8" font-family="Times,serif" font-size="14.00">input = {Tensor[4x358x638]}</text>
<text text-anchor="start" x="378.5" y="-940.8" font-family="Times,serif" font-size="14.00">module = nn.ReLU</text>
<text text-anchor="middle" x="461" y="-925.8" font-family="Times,serif" font-size="14.00">gradOutput = {}</text>
</a>
</g>
</g>
<!-- n8&#45;&gt;n7 -->
<g id="edge7" class="edge"><title>n8&#45;&gt;n7</title>
<path fill="none" stroke="black" d="M461,-903.699C461,-895.544 461,-886.987 461,-878.597"/>
<polygon fill="black" stroke="black" points="464.5,-878.483 461,-868.483 457.5,-878.483 464.5,-878.483"/>
</g>
<!-- n9 -->
<g id="node9" class="node"><title>n9</title>
<g id="a_node9"><a xlink:title="[./vision.lua]:22">
<ellipse fill="none" stroke="black" cx="461" cy="-1084" rx="138.389" ry="48.1667"/>
<text text-anchor="middle" x="461" y="-1102.8" font-family="Times,serif" font-size="14.00">Node9</text>
<text text-anchor="start" x="371" y="-1087.8" font-family="Times,serif" font-size="14.00">input = {Tensor[4x358x638]}</text>
<text text-anchor="start" x="371" y="-1072.8" font-family="Times,serif" font-size="14.00">module = nn.Dropout(0.500000)</text>
<text text-anchor="middle" x="461" y="-1057.8" font-family="Times,serif" font-size="14.00">gradOutput = {}</text>
</a>
</g>
</g>
<!-- n9&#45;&gt;n8 -->
<g id="edge8" class="edge"><title>n9&#45;&gt;n8</title>
<path fill="none" stroke="black" d="M461,-1035.7C461,-1027.54 461,-1018.99 461,-1010.6"/>
<polygon fill="black" stroke="black" points="464.5,-1010.48 461,-1000.48 457.5,-1010.48 464.5,-1010.48"/>
</g>
<!-- n10 -->
<g id="node10" class="node"><title>n10</title>
<g id="a_node10"><a xlink:title="[./vision.lua]:22">
<ellipse fill="none" stroke="black" cx="461" cy="-1216" rx="188.136" ry="48.1667"/>
<text text-anchor="middle" x="461" y="-1234.8" font-family="Times,serif" font-size="14.00">Node10</text>
<text text-anchor="start" x="336" y="-1219.8" font-family="Times,serif" font-size="14.00">input = {Tensor[6x360x640]}</text>
<text text-anchor="start" x="336" y="-1204.8" font-family="Times,serif" font-size="14.00">module = nn.SpatialConvolution(6 &#45;&gt; 4, 3x3)</text>
<text text-anchor="middle" x="461" y="-1189.8" font-family="Times,serif" font-size="14.00">gradOutput = {}</text>
</a>
</g>
</g>
<!-- n10&#45;&gt;n9 -->
<g id="edge9" class="edge"><title>n10&#45;&gt;n9</title>
<path fill="none" stroke="black" d="M461,-1167.7C461,-1159.54 461,-1150.99 461,-1142.6"/>
<polygon fill="black" stroke="black" points="464.5,-1142.48 461,-1132.48 457.5,-1142.48 464.5,-1142.48"/>
</g>
<!-- n11 -->
<g id="node11" class="node"><title>n11</title>
<g id="a_node11"><a xlink:title="[./vision.lua]:21">
<ellipse fill="none" stroke="black" cx="461" cy="-1359" rx="206.213" ry="58.8803"/>
<text text-anchor="middle" x="461" y="-1385.3" font-family="Times,serif" font-size="14.00">Node11</text>
<text text-anchor="start" x="323" y="-1370.3" font-family="Times,serif" font-size="14.00">input = {Tensor[3x360x640],Tensor[3x360x640]}</text>
<text text-anchor="start" x="323" y="-1355.3" font-family="Times,serif" font-size="14.00">module = nn.JoinTable</text>
<text text-anchor="start" x="323" y="-1340.3" font-family="Times,serif" font-size="14.00">mapindex = {Node12,Node13}</text>
<text text-anchor="middle" x="461" y="-1325.3" font-family="Times,serif" font-size="14.00">gradOutput = {}</text>
</a>
</g>
</g>
<!-- n11&#45;&gt;n10 -->
<g id="edge10" class="edge"><title>n11&#45;&gt;n10</title>
<path fill="none" stroke="black" d="M461,-1300.24C461,-1291.7 461,-1282.9 461,-1274.36"/>
<polygon fill="black" stroke="black" points="464.5,-1274.12 461,-1264.12 457.5,-1274.12 464.5,-1274.12"/>
</g>
<!-- n12 -->
<g id="node12" class="node"><title>n12</title>
<g id="a_node12"><a xlink:title="[./vision.lua]:19">
<ellipse fill="none" stroke="black" cx="302" cy="-1502" rx="127.48" ry="48.1667"/>
<text text-anchor="middle" x="302" y="-1520.8" font-family="Times,serif" font-size="14.00">Node12</text>
<text text-anchor="start" x="219.5" y="-1505.8" font-family="Times,serif" font-size="14.00">input = {Tensor[3x360x640]}</text>
<text text-anchor="start" x="219.5" y="-1490.8" font-family="Times,serif" font-size="14.00">module = nn.Identity</text>
<text text-anchor="middle" x="302" y="-1475.8" font-family="Times,serif" font-size="14.00">gradOutput = {}</text>
</a>
</g>
</g>
<!-- n12&#45;&gt;n11 -->
<g id="edge11" class="edge"><title>n12&#45;&gt;n11</title>
<path fill="none" stroke="black" d="M351.003,-1457.54C363.783,-1446.21 377.802,-1433.78 391.427,-1421.7"/>
<polygon fill="black" stroke="black" points="393.785,-1424.28 398.945,-1415.03 389.141,-1419.05 393.785,-1424.28"/>
</g>
<!-- n13 -->
<g id="node13" class="node"><title>n13</title>
<g id="a_node13"><a xlink:title="[./vision.lua]:20">
<ellipse fill="none" stroke="black" cx="620" cy="-1502" rx="127.48" ry="48.1667"/>
<text text-anchor="middle" x="620" y="-1520.8" font-family="Times,serif" font-size="14.00">Node13</text>
<text text-anchor="start" x="537.5" y="-1505.8" font-family="Times,serif" font-size="14.00">input = {Tensor[3x360x640]}</text>
<text text-anchor="start" x="537.5" y="-1490.8" font-family="Times,serif" font-size="14.00">module = nn.Identity</text>
<text text-anchor="middle" x="620" y="-1475.8" font-family="Times,serif" font-size="14.00">gradOutput = {}</text>
</a>
</g>
</g>
<!-- n13&#45;&gt;n11 -->
<g id="edge12" class="edge"><title>n13&#45;&gt;n11</title>
<path fill="none" stroke="black" d="M570.997,-1457.54C558.217,-1446.21 544.198,-1433.78 530.573,-1421.7"/>
<polygon fill="black" stroke="black" points="532.859,-1419.05 523.055,-1415.03 528.215,-1424.28 532.859,-1419.05"/>
</g>
<!-- n14 -->
<g id="node14" class="node"><title>n14</title>
<g id="a_node14"><a xlink:title="[[C]]:&#45;1&#45;1">
<ellipse fill="none" stroke="black" cx="215" cy="-1634" rx="215.501" ry="48.1667"/>
<text text-anchor="middle" x="215" y="-1652.8" font-family="Times,serif" font-size="14.00">Node14</text>
<text text-anchor="start" x="70.5" y="-1637.8" font-family="Times,serif" font-size="14.00">input = {{Tensor[3x360x640],Tensor[3x360x640]}}</text>
<text text-anchor="start" x="70.5" y="-1622.8" font-family="Times,serif" font-size="14.00">selectindex = 1</text>
<text text-anchor="middle" x="215" y="-1607.8" font-family="Times,serif" font-size="14.00">gradOutput = {}</text>
</a>
</g>
</g>
<!-- n14&#45;&gt;n12 -->
<g id="edge13" class="edge"><title>n14&#45;&gt;n12</title>
<path fill="none" stroke="black" d="M246.409,-1586.07C252.595,-1576.82 259.135,-1567.05 265.473,-1557.58"/>
<polygon fill="black" stroke="black" points="268.567,-1559.25 271.22,-1548.99 262.749,-1555.36 268.567,-1559.25"/>
</g>
<!-- n15 -->
<g id="node15" class="node"><title>n15</title>
<g id="a_node15"><a xlink:title="[[C]]:&#45;1&#45;2">
<ellipse fill="none" stroke="black" cx="664" cy="-1634" rx="215.501" ry="48.1667"/>
<text text-anchor="middle" x="664" y="-1652.8" font-family="Times,serif" font-size="14.00">Node15</text>
<text text-anchor="start" x="519.5" y="-1637.8" font-family="Times,serif" font-size="14.00">input = {{Tensor[3x360x640],Tensor[3x360x640]}}</text>
<text text-anchor="start" x="519.5" y="-1622.8" font-family="Times,serif" font-size="14.00">selectindex = 2</text>
<text text-anchor="middle" x="664" y="-1607.8" font-family="Times,serif" font-size="14.00">gradOutput = {}</text>
</a>
</g>
</g>
<!-- n15&#45;&gt;n13 -->
<g id="edge14" class="edge"><title>n15&#45;&gt;n13</title>
<path fill="none" stroke="black" d="M647.991,-1585.7C645.134,-1577.26 642.132,-1568.39 639.197,-1559.72"/>
<polygon fill="black" stroke="black" points="642.445,-1558.4 635.924,-1550.05 635.815,-1560.64 642.445,-1558.4"/>
</g>
<!-- n16 -->
<g id="node16" class="node"><title>n16</title>
<g id="a_node16"><a xlink:title="[[C]]:&#45;1&#45;mnode">
<ellipse fill="none" stroke="black" cx="439" cy="-1766" rx="215.501" ry="48.1667"/>
<text text-anchor="middle" x="439" y="-1784.8" font-family="Times,serif" font-size="14.00">Node16</text>
<text text-anchor="start" x="294.5" y="-1769.8" font-family="Times,serif" font-size="14.00">input = {{Tensor[3x360x640],Tensor[3x360x640]}}</text>
<text text-anchor="start" x="294.5" y="-1754.8" font-family="Times,serif" font-size="14.00">nSplitOutputs = 2</text>
<text text-anchor="middle" x="439" y="-1739.8" font-family="Times,serif" font-size="14.00">gradOutput = {}</text>
</a>
</g>
</g>
<!-- n16&#45;&gt;n14 -->
<g id="edge15" class="edge"><title>n16&#45;&gt;n14</title>
<path fill="none" stroke="black" d="M363.164,-1720.99C342.84,-1709.19 320.737,-1696.37 299.956,-1684.3"/>
<polygon fill="black" stroke="black" points="301.545,-1681.18 291.139,-1679.19 298.031,-1687.23 301.545,-1681.18"/>
</g>
<!-- n16&#45;&gt;n15 -->
<g id="edge16" class="edge"><title>n16&#45;&gt;n15</title>
<path fill="none" stroke="black" d="M515.175,-1720.99C535.589,-1709.19 557.791,-1696.37 578.665,-1684.3"/>
<polygon fill="black" stroke="black" points="580.613,-1687.22 587.521,-1679.19 577.111,-1681.16 580.613,-1687.22"/>
</g>
<!-- n17 -->
<g id="node17" class="node"><title>n17</title>
<g id="a_node17"><a xlink:title="[[C]]:&#45;1">
<ellipse fill="none" stroke="black" cx="439" cy="-1888" rx="206.213" ry="37.4533"/>
<text text-anchor="middle" x="439" y="-1899.3" font-family="Times,serif" font-size="14.00">Node17</text>
<text text-anchor="start" x="301" y="-1884.3" font-family="Times,serif" font-size="14.00">input = {Tensor[3x360x640],Tensor[3x360x640]}</text>
<text text-anchor="middle" x="439" y="-1869.3" font-family="Times,serif" font-size="14.00">gradOutput = {}</text>
</a>
</g>
</g>
<!-- n17&#45;&gt;n16 -->
<g id="edge17" class="edge"><title>n17&#45;&gt;n16</title>
<path fill="none" stroke="black" d="M439,-1850.34C439,-1842.22 439,-1833.42 439,-1824.68"/>
<polygon fill="black" stroke="black" points="442.5,-1824.5 439,-1814.5 435.5,-1824.5 442.5,-1824.5"/>
</g>
</g>
</svg>
