<?xml version="1.0" encoding="UTF-8" standalone="no"?>
<!DOCTYPE svg PUBLIC "-//W3C//DTD SVG 1.1//EN"
 "http://www.w3.org/Graphics/SVG/1.1/DTD/svg11.dtd">
<!-- Generated by graphviz version 2.36.0 (20140111.2315)
 -->
<!-- Title: G Pages: 1 -->
<svg width="1227pt" height="1957pt"
 viewBox="0.00 0.00 1227.00 1957.00" xmlns="http://www.w3.org/2000/svg" xmlns:xlink="http://www.w3.org/1999/xlink">
<g id="graph0" class="graph" transform="scale(1 1) rotate(0) translate(4 1953)">
<title>G</title>
<polygon fill="white" stroke="none" points="-4,4 -4,-1953 1223,-1953 1223,4 -4,4"/>
<text text-anchor="middle" x="609.5" y="-1933.8" font-family="Times,serif" font-size="14.00">nngraph_2in_1out</text>
<!-- n1 -->
<g id="node1" class="node"><title>n1</title>
<g id="a_node1"><a xlink:title="[./vision&#45;train.lua]:29">
<ellipse fill="none" stroke="black" cx="636" cy="-160" rx="205.153" ry="48.1667"/>
<text text-anchor="middle" x="636" y="-178.8" font-family="Times,serif" font-size="14.00">Node1</text>
<text text-anchor="start" x="498.5" y="-163.8" font-family="Times,serif" font-size="14.00">input = {torch.CudaTensor[3x356x636]}</text>
<text text-anchor="start" x="498.5" y="-148.8" font-family="Times,serif" font-size="14.00">module = nn.SpatialConvolution(3 &#45;&gt; 1, 3x3, 1,1)</text>
<text text-anchor="middle" x="636" y="-133.8" font-family="Times,serif" font-size="14.00">gradOutput = {torch.CudaTensor[1x356x636]}</text>
</a>
</g>
</g>
<!-- n2 -->
<g id="node2" class="node"><title>n2</title>
<g id="a_node2"><a xlink:title="[[C]]:&#45;1">
<ellipse fill="none" stroke="black" cx="636" cy="-38" rx="194.182" ry="37.4533"/>
<text text-anchor="middle" x="636" y="-49.3" font-family="Times,serif" font-size="14.00">Node2</text>
<text text-anchor="start" x="506.5" y="-34.3" font-family="Times,serif" font-size="14.00">input = {torch.CudaTensor[1x356x636]}</text>
<text text-anchor="middle" x="636" y="-19.3" font-family="Times,serif" font-size="14.00">gradOutput = {torch.CudaTensor[1x356x636]}</text>
</a>
</g>
</g>
<!-- n1&#45;&gt;n2 -->
<g id="edge1" class="edge"><title>n1&#45;&gt;n2</title>
<path fill="none" stroke="black" d="M636,-111.573C636,-103.096 636,-94.269 636,-85.8099"/>
<polygon fill="black" stroke="black" points="639.5,-85.7224 636,-75.7224 632.5,-85.7224 639.5,-85.7224"/>
</g>
<!-- n3 -->
<g id="node3" class="node"><title>n3</title>
<g id="a_node3"><a xlink:title="[./vision&#45;train.lua]:28">
<ellipse fill="none" stroke="black" cx="636" cy="-292" rx="194.182" ry="48.1667"/>
<text text-anchor="middle" x="636" y="-310.8" font-family="Times,serif" font-size="14.00">Node3</text>
<text text-anchor="start" x="506.5" y="-295.8" font-family="Times,serif" font-size="14.00">input = {torch.CudaTensor[3x358x638]}</text>
<text text-anchor="start" x="506.5" y="-280.8" font-family="Times,serif" font-size="14.00">module = nn.SpatialAveragePooling(3,3,1,1)</text>
<text text-anchor="middle" x="636" y="-265.8" font-family="Times,serif" font-size="14.00">gradOutput = {torch.CudaTensor[3x356x636]}</text>
</a>
</g>
</g>
<!-- n3&#45;&gt;n1 -->
<g id="edge2" class="edge"><title>n3&#45;&gt;n1</title>
<path fill="none" stroke="black" d="M636,-243.699C636,-235.544 636,-226.987 636,-218.597"/>
<polygon fill="black" stroke="black" points="639.5,-218.483 636,-208.483 632.5,-218.483 639.5,-218.483"/>
</g>
<!-- n4 -->
<g id="node4" class="node"><title>n4</title>
<g id="a_node4"><a xlink:title="[./vision&#45;train.lua]:28">
<ellipse fill="none" stroke="black" cx="636" cy="-424" rx="194.182" ry="48.1667"/>
<text text-anchor="middle" x="636" y="-442.8" font-family="Times,serif" font-size="14.00">Node4</text>
<text text-anchor="start" x="506.5" y="-427.8" font-family="Times,serif" font-size="14.00">input = {torch.CudaTensor[3x358x638]}</text>
<text text-anchor="start" x="506.5" y="-412.8" font-family="Times,serif" font-size="14.00">module = nn.ReLU</text>
<text text-anchor="middle" x="636" y="-397.8" font-family="Times,serif" font-size="14.00">gradOutput = {torch.CudaTensor[3x358x638]}</text>
</a>
</g>
</g>
<!-- n4&#45;&gt;n3 -->
<g id="edge3" class="edge"><title>n4&#45;&gt;n3</title>
<path fill="none" stroke="black" d="M636,-375.699C636,-367.544 636,-358.987 636,-350.597"/>
<polygon fill="black" stroke="black" points="639.5,-350.483 636,-340.483 632.5,-350.483 639.5,-350.483"/>
</g>
<!-- n5 -->
<g id="node5" class="node"><title>n5</title>
<g id="a_node5"><a xlink:title="[./vision&#45;train.lua]:28">
<ellipse fill="none" stroke="black" cx="636" cy="-556" rx="194.182" ry="48.1667"/>
<text text-anchor="middle" x="636" y="-574.8" font-family="Times,serif" font-size="14.00">Node5</text>
<text text-anchor="start" x="506.5" y="-559.8" font-family="Times,serif" font-size="14.00">input = {torch.CudaTensor[3x358x638]}</text>
<text text-anchor="start" x="506.5" y="-544.8" font-family="Times,serif" font-size="14.00">module = nn.Dropout(0.500000)</text>
<text text-anchor="middle" x="636" y="-529.8" font-family="Times,serif" font-size="14.00">gradOutput = {torch.CudaTensor[3x358x638]}</text>
</a>
</g>
</g>
<!-- n5&#45;&gt;n4 -->
<g id="edge4" class="edge"><title>n5&#45;&gt;n4</title>
<path fill="none" stroke="black" d="M636,-507.699C636,-499.544 636,-490.987 636,-482.597"/>
<polygon fill="black" stroke="black" points="639.5,-482.483 636,-472.483 632.5,-482.483 639.5,-482.483"/>
</g>
<!-- n6 -->
<g id="node6" class="node"><title>n6</title>
<g id="a_node6"><a xlink:title="[./vision&#45;train.lua]:28">
<ellipse fill="none" stroke="black" cx="636" cy="-688" rx="205.153" ry="48.1667"/>
<text text-anchor="middle" x="636" y="-706.8" font-family="Times,serif" font-size="14.00">Node6</text>
<text text-anchor="start" x="498.5" y="-691.8" font-family="Times,serif" font-size="14.00">input = {torch.CudaTensor[4x358x638]}</text>
<text text-anchor="start" x="498.5" y="-676.8" font-family="Times,serif" font-size="14.00">module = nn.SpatialConvolution(4 &#45;&gt; 3, 3x3, 1,1)</text>
<text text-anchor="middle" x="636" y="-661.8" font-family="Times,serif" font-size="14.00">gradOutput = {torch.CudaTensor[3x358x638]}</text>
</a>
</g>
</g>
<!-- n6&#45;&gt;n5 -->
<g id="edge5" class="edge"><title>n6&#45;&gt;n5</title>
<path fill="none" stroke="black" d="M636,-639.699C636,-631.544 636,-622.987 636,-614.597"/>
<polygon fill="black" stroke="black" points="639.5,-614.483 636,-604.483 632.5,-614.483 639.5,-614.483"/>
</g>
<!-- n7 -->
<g id="node7" class="node"><title>n7</title>
<g id="a_node7"><a xlink:title="[./vision&#45;train.lua]:27">
<ellipse fill="none" stroke="black" cx="636" cy="-820" rx="194.182" ry="48.1667"/>
<text text-anchor="middle" x="636" y="-838.8" font-family="Times,serif" font-size="14.00">Node7</text>
<text text-anchor="start" x="506.5" y="-823.8" font-family="Times,serif" font-size="14.00">input = {torch.CudaTensor[4x360x640]}</text>
<text text-anchor="start" x="506.5" y="-808.8" font-family="Times,serif" font-size="14.00">module = nn.SpatialAveragePooling(3,3,1,1)</text>
<text text-anchor="middle" x="636" y="-793.8" font-family="Times,serif" font-size="14.00">gradOutput = {torch.CudaTensor[4x358x638]}</text>
</a>
</g>
</g>
<!-- n7&#45;&gt;n6 -->
<g id="edge6" class="edge"><title>n7&#45;&gt;n6</title>
<path fill="none" stroke="black" d="M636,-771.699C636,-763.544 636,-754.987 636,-746.597"/>
<polygon fill="black" stroke="black" points="639.5,-746.483 636,-736.483 632.5,-746.483 639.5,-746.483"/>
</g>
<!-- n8 -->
<g id="node8" class="node"><title>n8</title>
<g id="a_node8"><a xlink:title="[./vision&#45;train.lua]:27">
<ellipse fill="none" stroke="black" cx="636" cy="-952" rx="194.182" ry="48.1667"/>
<text text-anchor="middle" x="636" y="-970.8" font-family="Times,serif" font-size="14.00">Node8</text>
<text text-anchor="start" x="506.5" y="-955.8" font-family="Times,serif" font-size="14.00">input = {torch.CudaTensor[4x360x640]}</text>
<text text-anchor="start" x="506.5" y="-940.8" font-family="Times,serif" font-size="14.00">module = nn.ReLU</text>
<text text-anchor="middle" x="636" y="-925.8" font-family="Times,serif" font-size="14.00">gradOutput = {torch.CudaTensor[4x360x640]}</text>
</a>
</g>
</g>
<!-- n8&#45;&gt;n7 -->
<g id="edge7" class="edge"><title>n8&#45;&gt;n7</title>
<path fill="none" stroke="black" d="M636,-903.699C636,-895.544 636,-886.987 636,-878.597"/>
<polygon fill="black" stroke="black" points="639.5,-878.483 636,-868.483 632.5,-878.483 639.5,-878.483"/>
</g>
<!-- n9 -->
<g id="node9" class="node"><title>n9</title>
<g id="a_node9"><a xlink:title="[./vision&#45;train.lua]:27">
<ellipse fill="none" stroke="black" cx="636" cy="-1084" rx="194.182" ry="48.1667"/>
<text text-anchor="middle" x="636" y="-1102.8" font-family="Times,serif" font-size="14.00">Node9</text>
<text text-anchor="start" x="506.5" y="-1087.8" font-family="Times,serif" font-size="14.00">input = {torch.CudaTensor[4x360x640]}</text>
<text text-anchor="start" x="506.5" y="-1072.8" font-family="Times,serif" font-size="14.00">module = nn.Dropout(0.500000)</text>
<text text-anchor="middle" x="636" y="-1057.8" font-family="Times,serif" font-size="14.00">gradOutput = {torch.CudaTensor[4x360x640]}</text>
</a>
</g>
</g>
<!-- n9&#45;&gt;n8 -->
<g id="edge8" class="edge"><title>n9&#45;&gt;n8</title>
<path fill="none" stroke="black" d="M636,-1035.7C636,-1027.54 636,-1018.99 636,-1010.6"/>
<polygon fill="black" stroke="black" points="639.5,-1010.48 636,-1000.48 632.5,-1010.48 639.5,-1010.48"/>
</g>
<!-- n10 -->
<g id="node10" class="node"><title>n10</title>
<g id="a_node10"><a xlink:title="[./vision&#45;train.lua]:27">
<ellipse fill="red" stroke="black" cx="636" cy="-1216" rx="205.153" ry="48.1667"/>
<text text-anchor="middle" x="636" y="-1234.8" font-family="Times,serif" font-size="14.00">Node10</text>
<text text-anchor="start" x="498.5" y="-1219.8" font-family="Times,serif" font-size="14.00">input = {torch.CudaTensor[6x360x640]}</text>
<text text-anchor="start" x="498.5" y="-1204.8" font-family="Times,serif" font-size="14.00">module = nn.SpatialConvolution(6 &#45;&gt; 4, 3x3, 1,1)</text>
<text text-anchor="middle" x="636" y="-1189.8" font-family="Times,serif" font-size="14.00">gradOutput = {torch.CudaTensor[4x360x640]}</text>
</a>
</g>
</g>
<!-- n10&#45;&gt;n9 -->
<g id="edge9" class="edge"><title>n10&#45;&gt;n9</title>
<path fill="none" stroke="black" d="M636,-1167.7C636,-1159.54 636,-1150.99 636,-1142.6"/>
<polygon fill="black" stroke="black" points="639.5,-1142.48 636,-1132.48 632.5,-1142.48 639.5,-1142.48"/>
</g>
<!-- n11 -->
<g id="node11" class="node"><title>n11</title>
<g id="a_node11"><a xlink:title="[./vision&#45;train.lua]:25">
<ellipse fill="none" stroke="black" cx="636" cy="-1359" rx="290.992" ry="58.8803"/>
<text text-anchor="middle" x="636" y="-1385.3" font-family="Times,serif" font-size="14.00">Node11</text>
<text text-anchor="start" x="438" y="-1370.3" font-family="Times,serif" font-size="14.00">input = {torch.CudaTensor[3x360x640],torch.CudaTensor[3x360x640]}</text>
<text text-anchor="start" x="438" y="-1355.3" font-family="Times,serif" font-size="14.00">module = nn.JoinTable</text>
<text text-anchor="start" x="438" y="-1340.3" font-family="Times,serif" font-size="14.00">mapindex = {Node12,Node13}</text>
<text text-anchor="middle" x="636" y="-1325.3" font-family="Times,serif" font-size="14.00">gradOutput = {torch.CudaTensor[6x360x640]}</text>
</a>
</g>
</g>
<!-- n11&#45;&gt;n10 -->
<g id="edge10" class="edge"><title>n11&#45;&gt;n10</title>
<path fill="none" stroke="black" d="M636,-1300.24C636,-1291.7 636,-1282.9 636,-1274.36"/>
<polygon fill="black" stroke="black" points="639.5,-1274.12 636,-1264.12 632.5,-1274.12 639.5,-1274.12"/>
</g>
<!-- n12 -->
<g id="node12" class="node"><title>n12</title>
<g id="a_node12"><a xlink:title="[./vision&#45;train.lua]:23">
<ellipse fill="none" stroke="black" cx="406" cy="-1502" rx="194.182" ry="48.1667"/>
<text text-anchor="middle" x="406" y="-1520.8" font-family="Times,serif" font-size="14.00">Node12</text>
<text text-anchor="start" x="276.5" y="-1505.8" font-family="Times,serif" font-size="14.00">input = {torch.CudaTensor[3x360x640]}</text>
<text text-anchor="start" x="276.5" y="-1490.8" font-family="Times,serif" font-size="14.00">module = nn.Identity</text>
<text text-anchor="middle" x="406" y="-1475.8" font-family="Times,serif" font-size="14.00">gradOutput = {torch.CudaTensor[3x360x640]}</text>
</a>
</g>
</g>
<!-- n12&#45;&gt;n11 -->
<g id="edge11" class="edge"><title>n12&#45;&gt;n11</title>
<path fill="none" stroke="black" d="M477.513,-1457.16C496.551,-1445.49 517.455,-1432.67 537.658,-1420.29"/>
<polygon fill="black" stroke="black" points="539.569,-1423.22 546.266,-1415.01 535.911,-1417.25 539.569,-1423.22"/>
</g>
<!-- n13 -->
<g id="node13" class="node"><title>n13</title>
<g id="a_node13"><a xlink:title="[./vision&#45;train.lua]:24">
<ellipse fill="none" stroke="black" cx="866" cy="-1502" rx="194.182" ry="48.1667"/>
<text text-anchor="middle" x="866" y="-1520.8" font-family="Times,serif" font-size="14.00">Node13</text>
<text text-anchor="start" x="736.5" y="-1505.8" font-family="Times,serif" font-size="14.00">input = {torch.CudaTensor[3x360x640]}</text>
<text text-anchor="start" x="736.5" y="-1490.8" font-family="Times,serif" font-size="14.00">module = nn.Identity</text>
<text text-anchor="middle" x="866" y="-1475.8" font-family="Times,serif" font-size="14.00">gradOutput = {torch.CudaTensor[3x360x640]}</text>
</a>
</g>
</g>
<!-- n13&#45;&gt;n11 -->
<g id="edge12" class="edge"><title>n13&#45;&gt;n11</title>
<path fill="none" stroke="black" d="M794.487,-1457.16C775.449,-1445.49 754.545,-1432.67 734.342,-1420.29"/>
<polygon fill="black" stroke="black" points="736.089,-1417.25 725.734,-1415.01 732.431,-1423.22 736.089,-1417.25"/>
</g>
<!-- n14 -->
<g id="node14" class="node"><title>n14</title>
<g id="a_node14"><a xlink:title="[[C]]:&#45;1&#45;1">
<ellipse fill="none" stroke="black" cx="300" cy="-1634" rx="300.281" ry="48.1667"/>
<text text-anchor="middle" x="300" y="-1652.8" font-family="Times,serif" font-size="14.00">Node14</text>
<text text-anchor="start" x="95.5" y="-1637.8" font-family="Times,serif" font-size="14.00">input = {{torch.CudaTensor[3x360x640],torch.CudaTensor[3x360x640]}}</text>
<text text-anchor="start" x="95.5" y="-1622.8" font-family="Times,serif" font-size="14.00">selectindex = 1</text>
<text text-anchor="middle" x="300" y="-1607.8" font-family="Times,serif" font-size="14.00">gradOutput = {torch.CudaTensor[3x360x640]}</text>
</a>
</g>
</g>
<!-- n14&#45;&gt;n12 -->
<g id="edge13" class="edge"><title>n14&#45;&gt;n12</title>
<path fill="none" stroke="black" d="M338.268,-1586.07C345.866,-1576.75 353.903,-1566.89 361.683,-1557.35"/>
<polygon fill="black" stroke="black" points="364.536,-1559.39 368.143,-1549.43 359.111,-1554.97 364.536,-1559.39"/>
</g>
<!-- n15 -->
<g id="node15" class="node"><title>n15</title>
<g id="a_node15"><a xlink:title="[[C]]:&#45;1&#45;2">
<ellipse fill="none" stroke="black" cx="919" cy="-1634" rx="300.281" ry="48.1667"/>
<text text-anchor="middle" x="919" y="-1652.8" font-family="Times,serif" font-size="14.00">Node15</text>
<text text-anchor="start" x="714.5" y="-1637.8" font-family="Times,serif" font-size="14.00">input = {{torch.CudaTensor[3x360x640],torch.CudaTensor[3x360x640]}}</text>
<text text-anchor="start" x="714.5" y="-1622.8" font-family="Times,serif" font-size="14.00">selectindex = 2</text>
<text text-anchor="middle" x="919" y="-1607.8" font-family="Times,serif" font-size="14.00">gradOutput = {torch.CudaTensor[3x360x640]}</text>
</a>
</g>
</g>
<!-- n15&#45;&gt;n13 -->
<g id="edge14" class="edge"><title>n15&#45;&gt;n13</title>
<path fill="none" stroke="black" d="M899.716,-1585.7C896.238,-1577.17 892.581,-1568.2 889.01,-1559.44"/>
<polygon fill="black" stroke="black" points="892.197,-1557.99 885.181,-1550.05 885.715,-1560.63 892.197,-1557.99"/>
</g>
<!-- n16 -->
<g id="node16" class="node"><title>n16</title>
<g id="a_node16"><a xlink:title="[[C]]:&#45;1&#45;mnode">
<ellipse fill="none" stroke="black" cx="609" cy="-1766" rx="324.343" ry="48.1667"/>
<text text-anchor="middle" x="609" y="-1784.8" font-family="Times,serif" font-size="14.00">Node16</text>
<text text-anchor="start" x="387.5" y="-1769.8" font-family="Times,serif" font-size="14.00">input = {{torch.CudaTensor[3x360x640],torch.CudaTensor[3x360x640]}}</text>
<text text-anchor="start" x="387.5" y="-1754.8" font-family="Times,serif" font-size="14.00">nSplitOutputs = 2</text>
<text text-anchor="middle" x="609" y="-1739.8" font-family="Times,serif" font-size="14.00">gradOutput = {{torch.CudaTensor[3x360x640],torch.CudaTensor[3x360x640]}}</text>
</a>
</g>
</g>
<!-- n16&#45;&gt;n14 -->
<g id="edge15" class="edge"><title>n16&#45;&gt;n14</title>
<path fill="none" stroke="black" d="M503.092,-1720.44C474.48,-1708.41 443.392,-1695.33 414.339,-1683.1"/>
<polygon fill="black" stroke="black" points="415.559,-1679.82 404.984,-1679.17 412.844,-1686.27 415.559,-1679.82"/>
</g>
<!-- n16&#45;&gt;n15 -->
<g id="edge16" class="edge"><title>n16&#45;&gt;n15</title>
<path fill="none" stroke="black" d="M715.251,-1720.44C744.035,-1708.37 775.316,-1695.25 804.531,-1683"/>
<polygon fill="black" stroke="black" points="806.07,-1686.15 813.938,-1679.06 803.363,-1679.7 806.07,-1686.15"/>
</g>
<!-- n17 -->
<g id="node17" class="node"><title>n17</title>
<g id="a_node17"><a xlink:title="[[C]]:&#45;1">
<ellipse fill="none" stroke="black" cx="609" cy="-1888" rx="324.343" ry="37.4533"/>
<text text-anchor="middle" x="609" y="-1899.3" font-family="Times,serif" font-size="14.00">Node17</text>
<text text-anchor="start" x="387.5" y="-1884.3" font-family="Times,serif" font-size="14.00">input = {torch.CudaTensor[3x360x640],torch.CudaTensor[3x360x640]}</text>
<text text-anchor="middle" x="609" y="-1869.3" font-family="Times,serif" font-size="14.00">gradOutput = {{torch.CudaTensor[3x360x640],torch.CudaTensor[3x360x640]}}</text>
</a>
</g>
</g>
<!-- n17&#45;&gt;n16 -->
<g id="edge17" class="edge"><title>n17&#45;&gt;n16</title>
<path fill="none" stroke="black" d="M609,-1850.34C609,-1842.22 609,-1833.42 609,-1824.68"/>
<polygon fill="black" stroke="black" points="612.5,-1824.5 609,-1814.5 605.5,-1824.5 612.5,-1824.5"/>
</g>
</g>
</svg>
